<svg xmlns="http://www.w3.org/2000/svg" viewBox="0 0 604 851" fill="#3a3a3a">
  <g transform="translate(0,851) scale(0.1,-0.1)">
    <path d="M4647 8193 c-4 -3 -7 -18 -7 -33 0 -49 42 -66 75 -30 26 29 7 70 -33 70 -16 0 -32 -3 -35 -7z" />
    <path d="M768 7342 c-20 -4 -34 -43 -25 -67 8 -20 54 -30 72 -15 16 13 20 48 7 66 -9 14 -33 21 -54 16z" />
    <path d="M4278 7029 c-27 -15 -23 -63 6 -77 49 -22 87 36 48 71 -21 19 -30 20 -54 6z" />
    <path d="M1532 6978 c-28 -28 -7 -78 33 -78 42 0 59 44 29 74 -18 19 -45 21 -62 4z" />
    <path d="M941 6831 c-6 -11 -11 -28 -11 -38 0 -23 -79 -178 -123 -242 -17 -25 -64 -80 -104 -122 -41 -43 -73 -85 -73 -96 0 -28 25 -46 54 -39 24 6 157 140 208 210 l28 39 0 -141 0 -140 -65 -80 c-72 -89 -135 -143 -255 -223 -50 -34 -82 -63 -86 -77 -9 -31 16 -57 48 -49 40 10 199 122 281 197 l77 72 2 -59 c1 -32 1 -96 -1 -143 -3 -84 -3 -84 -51 -145 -72 -90 -186 -195 -276 -252 -110 -71 -134 -92 -134 -113 0 -20 27 -40 53 -40 29 0 254 161 327 234 l75 75 5 -87 c8 -146 2 -168 -67 -253 -117 -142 -249 -258 -425 -373 -87 -57 -102 -78 -76 -104 21 -21 46 -14 131 35 118 68 197 131 325 257 l112 111 0 -159 0 -159 -57 -71 c-143 -175 -260 -279 -423 -375 -121 -71 -130 -79 -130 -106 0 -40 41 -43 109 -10 121 59 255 159 375 277 65 65 121 117 123 115 2 -2 4 -83 6 -179 l2 -175 -30 -43 c-53 -76 -275 -298 -369 -369 -50 -38 -121 -85 -158 -105 -84 -47 -95 -59 -80 -91 20 -44 61 -30 215 73 131 88 203 149 315 262 49 50 91 90 95 90 4 0 7 -74 7 -164 l0 -164 -104 -128 c-57 -71 -123 -148 -147 -170 -71 -67 -218 -174 -327 -239 -89 -52 -102 -63 -102 -86 0 -41 44 -47 107 -15 194 99 380 250 536 435 l37 45 1 -75 c5 -388 4 -1221 -2 -1230 -8 -13 -149 122 -202 192 -27 36 -28 41 -25 144 l3 106 58 -70 c57 -70 81 -83 105 -59 20 20 14 44 -25 95 -20 26 -61 80 -90 118 l-53 70 0 80 c0 93 -17 130 -53 119 -33 -10 -37 -22 -37 -106 l0 -77 -56 -83 c-31 -45 -72 -103 -91 -127 -36 -48 -39 -77 -11 -95 14 -9 25 -3 58 29 22 22 51 54 63 72 12 18 25 33 30 33 4 0 7 -47 7 -104 l0 -104 -44 -58 c-24 -33 -82 -97 -130 -143 -86 -84 -99 -108 -70 -131 24 -21 54 -3 154 88 l90 83 0 -81 c0 -68 -4 -87 -22 -113 -39 -57 -91 -112 -186 -197 -50 -45 -92 -90 -92 -99 0 -22 19 -41 41 -41 21 0 115 69 197 144 l62 58 0 -97 0 -98 -108 -106 c-60 -58 -132 -122 -160 -141 -57 -38 -74 -72 -49 -97 30 -30 93 6 239 137 37 33 69 60 72 60 3 0 6 -173 6 -385 l0 -385 -180 0 -180 0 0 -51 0 -51 948 3 947 3 55 -23 c108 -45 182 -63 228 -57 55 7 188 76 245 126 51 45 112 154 128 228 24 113 -28 220 -197 402 -101 110 -123 152 -124 232 0 60 33 241 74 408 l24 95 18 -45 c44 -109 188 -370 260 -473 32 -44 34 -52 34 -130 0 -120 -26 -369 -49 -472 -28 -125 -41 -160 -123 -327 l-73 -147 -712 -1 c-633 0 -713 -2 -727 -16 -20 -19 -20 -34 0 -62 l15 -22 1778 0 c1613 0 1779 1 1785 16 3 9 6 29 6 45 0 22 -5 30 -22 33 -13 3 -261 7 -551 9 -290 3 -530 7 -533 9 -4 5 13 54 24 68 2 3 138 7 302 10 l299 5 43 42 44 43 707 0 707 0 0 50 0 50 -115 0 -115 0 0 281 0 282 45 -42 c49 -45 88 -52 109 -19 9 14 -3 31 -72 101 l-82 85 0 83 0 84 43 -48 c35 -41 47 -48 72 -45 18 2 31 10 33 20 2 9 -31 61 -73 117 l-76 100 3 78 3 78 33 -47 c33 -48 57 -59 80 -36 22 22 13 45 -53 143 -61 92 -65 101 -65 154 0 59 -11 81 -41 81 -30 0 -49 -29 -49 -75 0 -37 -9 -57 -60 -132 -33 -48 -70 -100 -81 -114 -37 -46 -1 -96 47 -65 12 9 37 36 56 62 l33 46 3 -72 c3 -83 -7 -107 -102 -225 -60 -75 -68 -100 -36 -110 31 -10 55 2 94 45 20 22 38 40 41 40 3 0 5 -36 5 -81 l0 -80 -80 -82 c-44 -45 -80 -87 -80 -92 0 -19 23 -35 49 -35 16 0 41 15 68 42 l43 42 0 -282 0 -282 -105 0 -105 0 0 1012 0 1012 93 -93 c96 -97 189 -172 244 -199 27 -13 35 -13 48 -2 29 24 11 53 -75 123 -119 96 -162 139 -241 240 l-69 89 0 164 0 164 63 -66 c67 -71 213 -186 316 -248 71 -44 94 -41 99 10 2 26 -5 34 -90 90 -121 80 -254 198 -328 292 l-60 75 0 158 c0 88 3 159 6 159 3 0 34 -27 68 -59 127 -123 331 -265 371 -259 11 2 24 15 30 32 11 33 22 22 -125 118 -105 68 -335 288 -345 329 -3 13 -4 96 -3 183 l3 159 93 -89 c99 -94 226 -190 305 -231 56 -28 77 -20 77 28 0 30 2 29 -122 110 -92 60 -217 175 -299 275 l-59 72 0 139 0 138 69 -65 c72 -69 223 -181 278 -208 27 -13 35 -13 48 -2 34 29 14 61 -76 125 -128 89 -172 128 -249 220 l-70 82 0 168 0 167 88 -89 c88 -90 203 -183 227 -183 19 0 37 26 33 50 -2 12 -48 61 -107 113 -58 51 -135 132 -173 181 l-68 89 0 134 c0 73 2 133 4 133 2 0 16 -19 31 -42 50 -75 136 -177 155 -183 26 -8 60 11 60 34 0 10 -12 34 -27 53 -103 133 -130 172 -166 243 -22 44 -48 107 -57 140 -13 52 -19 60 -39 60 -27 0 -33 -9 -56 -85 -24 -79 -114 -227 -191 -310 -52 -57 -65 -77 -62 -98 8 -71 99 -17 200 120 l53 71 3 -133 3 -132 -43 -57 c-82 -108 -139 -169 -228 -242 -61 -50 -90 -80 -90 -94 0 -25 18 -45 41 -45 23 0 158 110 247 201 l72 73 0 -155 0 -155 -49 -70 c-54 -76 -160 -189 -234 -249 -38 -30 -47 -44 -45 -64 2 -20 9 -27 31 -29 33 -4 78 30 209 157 l88 85 0 -136 0 -135 -42 -64 c-24 -35 -89 -111 -145 -170 -100 -104 -116 -132 -91 -157 28 -28 55 -11 163 98 59 60 110 110 111 110 2 0 4 -77 4 -171 l0 -172 -37 -46 c-21 -25 -75 -85 -120 -132 -62 -64 -83 -93 -83 -113 0 -31 22 -43 53 -28 12 5 56 42 99 81 42 39 79 71 82 71 3 0 6 -70 6 -156 l0 -156 -42 -52 c-23 -28 -78 -88 -123 -134 -44 -45 -84 -93 -89 -106 -13 -34 -1 -56 30 -56 20 0 49 22 118 90 51 49 95 90 99 90 4 0 7 -68 7 -151 l0 -151 -47 -67 c-26 -36 -98 -116 -160 -178 -61 -61 -113 -117 -114 -125 -5 -42 19 -55 61 -33 16 8 81 65 144 126 l116 111 0 -1011 0 -1011 -116 0 -116 0 3 145 c2 80 5 145 7 145 3 0 27 -20 53 -45 49 -45 84 -56 107 -33 22 22 12 39 -73 120 l-85 80 0 92 0 91 46 -52 c44 -51 64 -60 98 -47 26 10 18 36 -25 89 -125 150 -123 147 -129 263 -4 86 -8 107 -22 116 -13 8 -23 8 -35 0 -15 -9 -19 -30 -23 -116 -6 -116 -4 -112 -128 -252 -59 -67 -66 -99 -20 -104 22 -3 39 8 81 47 l54 51 7 -71 c8 -86 0 -102 -98 -199 -66 -65 -82 -102 -50 -114 31 -12 45 -5 94 40 l50 47 0 -147 0 -146 -239 0 -238 0 3 37 c2 21 5 72 8 113 6 84 59 305 172 719 144 526 212 848 271 1291 26 197 26 890 0 1065 -50 336 -165 695 -293 917 -91 158 -251 346 -393 460 -161 130 -375 252 -531 303 -72 24 -99 39 -180 105 -127 103 -206 155 -305 201 -113 53 -188 69 -330 69 -137 0 -223 -19 -340 -75 -140 -67 -365 -248 -492 -394 -56 -65 -85 -90 -131 -112 -70 -34 -144 -110 -174 -177 -13 -28 -23 -76 -26 -122 -4 -69 -8 -81 -55 -154 -119 -188 -234 -476 -291 -729 -27 -122 -56 -308 -56 -364 0 -18 -3 -33 -8 -33 -12 0 -138 125 -182 181 l-40 51 0 126 c0 70 3 151 7 180 l6 54 66 -65 c72 -70 87 -79 114 -65 33 17 20 57 -41 121 -101 107 -137 148 -144 165 -8 21 -10 189 -2 257 l5 50 92 -89 c96 -94 162 -146 183 -146 15 0 44 27 44 42 0 6 -51 61 -113 122 -63 61 -137 142 -165 180 -57 76 -60 92 -45 249 l6 67 66 -63 c100 -95 247 -201 318 -228 35 -13 65 5 61 38 -2 21 -23 38 -100 87 -133 84 -229 165 -300 254 l-59 75 2 133 c1 74 4 134 6 134 2 0 38 -28 81 -63 153 -125 259 -190 299 -185 24 3 28 8 28 33 0 27 -10 37 -105 99 -67 45 -142 106 -207 172 l-103 102 0 85 c0 46 3 111 6 145 l7 60 44 -59 c54 -72 158 -167 192 -176 28 -7 55 7 59 31 2 10 -34 54 -95 114 -109 110 -184 228 -213 336 -12 49 -20 62 -37 64 -14 2 -26 -4 -32 -17z m2041 -620 c156 -40 328 -147 503 -313 123 -117 126 -125 55 -127 -39 -1 -140 -53 -203 -105 -31 -25 -61 -46 -67 -46 -6 0 -29 9 -50 20 -77 39 -163 51 -390 54 -276 4 -377 -5 -480 -44 l-79 -31 -73 56 c-40 30 -97 65 -125 77 -29 12 -53 25 -53 29 0 12 195 193 270 251 133 101 223 148 355 183 77 21 248 19 337 -4z m731 -372 c23 -12 87 -49 142 -82 447 -269 678 -598 826 -1173 66 -261 89 -465 89 -802 0 -359 -22 -595 -91 -972 -34 -186 -154 -685 -230 -953 -107 -380 -149 -573 -158 -714 -10 -165 -19 -183 -92 -183 -43 0 -50 3 -45 16 3 9 9 40 12 69 6 52 5 55 -20 66 -36 17 -52 0 -75 -82 l-18 -64 -56 -3 c-32 -2 -57 1 -57 5 0 4 7 36 15 71 18 76 9 105 -33 100 -31 -3 -48 -32 -61 -102 -12 -67 -24 -76 -92 -76 -33 0 -59 4 -59 9 0 10 33 100 150 401 95 249 299 865 389 1180 122 427 151 645 151 1150 0 696 -114 1174 -403 1683 -41 73 -88 159 -103 192 -17 35 -58 91 -98 135 -39 41 -86 92 -105 113 -40 43 -37 45 22 16z m-1665 -179 c24 -11 66 -36 93 -56 l49 -35 -67 -54 -67 -53 -28 39 c-33 46 -72 52 -105 17 -50 -55 -56 -107 -19 -157 l24 -33 -36 -58 c-21 -33 -40 -59 -45 -60 -13 0 -85 119 -103 172 -28 86 -3 177 69 246 66 64 140 74 235 32z m1674 -10 c65 -43 98 -109 98 -195 0 -50 -6 -79 -23 -114 -34 -67 -76 -131 -86 -131 -4 0 -26 26 -49 58 l-40 57 24 28 c32 38 39 71 23 114 -31 79 -99 93 -142 28 -12 -19 -27 -33 -34 -31 -6 3 -39 26 -73 53 l-61 47 33 28 c18 15 60 41 92 58 48 24 72 30 126 30 57 0 73 -4 112 -30z m-641 -60 c174 -32 433 -239 553 -441 101 -169 139 -291 138 -444 0 -283 -138 -488 -506 -752 -25 -18 -47 -33 -49 -33 -3 0 -8 60 -12 133 -8 152 -15 172 -53 162 -50 -12 -51 -18 -45 -149 8 -170 -17 -239 -101 -277 -54 -24 -154 -26 -163 -3 -12 32 10 68 48 77 20 5 49 22 65 38 22 23 28 40 31 86 4 68 -9 98 -56 130 -30 20 -46 23 -138 23 -68 0 -116 -5 -138 -14 -48 -20 -75 -68 -75 -133 0 -47 4 -56 38 -93 29 -30 47 -40 70 -40 33 0 52 -21 52 -58 0 -25 -18 -32 -88 -32 -103 0 -173 61 -187 160 -4 28 -4 102 0 164 l7 113 -27 7 c-65 16 -75 -11 -75 -200 0 -57 -3 -104 -6 -104 -3 0 -69 51 -147 114 -244 195 -326 292 -389 457 -31 81 -32 90 -32 234 0 130 3 159 22 215 60 171 176 359 278 449 114 101 244 178 345 205 65 18 553 22 640 6z m924 -415 c73 -150 110 -239 155 -380 100 -314 149 -669 150 -1080 0 -393 -24 -637 -91 -905 -81 -330 -307 -1040 -440 -1383 -138 -356 -151 -393 -169 -480 -28 -137 -57 -158 -232 -165 -135 -5 -130 -10 -98 84 25 75 25 101 0 114 -36 20 -56 -3 -90 -105 l-32 -95 -79 0 c-93 0 -94 2 -49 92 35 68 37 93 12 107 -36 19 -92 -48 -128 -153 l-16 -46 -79 0 c-53 0 -79 4 -79 11 0 7 17 42 38 78 126 218 165 385 197 841 24 348 44 585 60 703 19 139 20 223 1 230 -7 3 -46 -3 -87 -14 -97 -25 -199 -25 -285 2 -88 27 -224 96 -293 148 -30 23 -63 41 -72 41 -23 0 -42 -35 -34 -60 9 -28 78 -81 170 -130 44 -24 81 -44 83 -46 2 -1 -20 -96 -48 -211 -79 -325 -94 -400 -94 -493 1 -129 24 -179 139 -298 166 -172 202 -230 190 -307 -7 -49 -38 -95 -64 -95 -9 0 -40 12 -69 26 -61 30 -96 29 -100 -4 -5 -30 9 -45 74 -83 30 -17 54 -34 54 -39 0 -12 -58 -30 -96 -30 -45 0 -77 14 -132 55 -59 46 -96 45 -100 -2 -3 -29 3 -37 60 -79 l63 -47 -40 7 c-66 12 -245 94 -304 139 -114 87 -262 239 -326 337 -199 298 -305 733 -306 1247 0 213 -10 366 -39 568 -63 457 -71 849 -21 1130 35 202 101 433 167 588 37 86 145 287 154 287 3 0 14 -15 24 -32 11 -18 36 -54 57 -81 l37 -47 -30 -72 c-63 -149 -84 -350 -53 -497 50 -238 171 -396 475 -624 63 -47 144 -110 180 -141 236 -202 295 -236 410 -236 41 0 92 5 112 10 50 14 138 75 229 157 42 39 107 91 145 118 147 103 215 157 303 240 157 150 230 266 272 435 39 154 16 379 -57 552 l-24 58 44 55 c25 30 58 82 73 115 l28 59 18 -22 c10 -12 47 -80 82 -152z m-2812 -1083 l37 -25 0 -107 c0 -59 3 -149 6 -201 l7 -94 -54 50 c-30 28 -81 81 -114 119 -57 66 -59 71 -63 133 -3 35 -1 111 3 168 l7 105 66 -61 c37 -34 84 -73 105 -87z m10 -515 c50 -42 57 -53 57 -85 0 -20 12 -118 26 -217 21 -143 28 -243 34 -490 5 -170 14 -350 19 -400 44 -365 128 -663 247 -882 72 -133 156 -232 317 -374 l77 -69 -482 2 -483 3 -3 200 c-2 110 0 229 3 263 6 60 8 63 29 58 30 -7 60 24 51 53 -3 12 -10 21 -15 21 -4 0 -22 13 -39 29 l-31 29 0 929 c0 510 3 965 7 1011 l6 82 61 -57 c34 -32 87 -80 119 -106z m1676 93 c38 -21 -103 -41 -166 -24 -33 9 -28 19 15 31 39 12 125 8 151 -7z m-55 -1145 l128 1 -6 -61 c-28 -277 -36 -351 -42 -429 l-7 -89 -37 59 c-20 33 -61 104 -90 159 -29 55 -56 105 -60 110 -8 12 -58 137 -71 178 -5 15 -13 41 -19 58 l-9 31 42 -9 c23 -4 100 -8 171 -8z m-1926 -201 c21 -6 22 -12 23 -98 1 -92 0 -118 -6 -125 -8 -8 -101 77 -161 148 l-64 74 0 90 0 89 93 -86 c50 -48 102 -89 115 -92z m-153 -205 c22 -22 73 -66 114 -96 l73 -56 -6 -51 c-3 -28 -6 -73 -6 -99 l0 -48 -47 37 c-53 41 -113 101 -155 153 -26 31 -28 41 -28 117 0 46 4 84 8 84 4 0 26 -18 47 -41z m7 -334 c27 -24 76 -64 108 -87 l59 -43 2 -65 c1 -36 3 -170 4 -297 l1 -233 -116 0 -117 0 -2 385 c-1 212 1 385 5 385 3 0 28 -20 56 -45z" />
    <path d="M2307 4768 c-28 -21 -32 -86 -8 -125 28 -45 60 -63 131 -73 41 -6 70 -16 85 -30 30 -28 36 -17 43 70 8 116 -28 154 -159 165 -55 5 -79 3 -92 -7z" />
    <path d="M3137 4770 c-79 -15 -117 -57 -117 -130 0 -56 24 -99 65 -116 52 -21 58 -19 51 20 l-6 33 51 5 c65 7 108 45 116 106 9 64 -14 92 -75 91 -26 -1 -64 -5 -85 -9z" />
    <path d="M4970 6729 c-9 -16 -8 -26 5 -45 19 -29 46 -31 70 -4 15 17 16 24 7 45 -15 32 -66 35 -82 4z" />
    <path d="M1956 6554 c-23 -22 -20 -51 8 -69 32 -22 66 -2 66 37 0 42 -45 62 -74 32z" />
    <path d="M3832 6548 c-17 -17 -15 -53 3 -68 38 -31 96 27 65 65 -15 18 -51 20 -68 3z" />
    <path d="M748 509 c-21 -12 -24 -49 -6 -67 17 -17 2059 -17 2076 0 19 19 14 45 -10 62 -20 14 -134 16 -1033 16 -667 -1 -1016 -4 -1027 -11z" />
    <path d="M482 122 c-8 -6 -12 -24 -10 -48 l3 -39 1191 -3 c1166 -2 1191 -2 1208 17 22 24 13 59 -18 71 -29 11 -2357 13 -2374 2z" />
  </g>
</svg>
